<?xml version="1.0" encoding="utf-8"?>
<!-- Generator: Adobe Illustrator 25.4.1, SVG Export Plug-In . SVG Version: 6.00 Build 0)  -->
<svg version="1.1" id="search_icon" xmlns="http://www.w3.org/2000/svg" xmlns:xlink="http://www.w3.org/1999/xlink" x="0px"
	 y="0px" viewBox="0 0 40 40" style="enable-background:new 0 0 40 40;" xml:space="preserve">
<style type="text/css">
	.st0{fill:none;}
	.st1{fill:#027F91;}
</style>
<rect id="Rectangle_693" x="12" y="12" class="st0" width="16" height="16"/>
<path class="st1" d="M25,27.2l-0.3,0.2c-1.8,1.3-4,2.1-6.2,2.1l-0.2,0C12.6,29.4,8,24.7,8,19v-0.1c0-5.7,4.7-10.3,10.4-10.3l0.1,0
	c2.8,0,5.4,1.1,7.4,3.1c2,2,3,4.6,3,7.4c0,2.3-0.7,4.5-2.1,6.3l-0.2,0.3l5.1,5.1l-1.6,1.6L25,27.2z M18.3,10.8
	c-2.2,0-4.2,0.9-5.7,2.4c-1.5,1.5-2.3,3.6-2.3,5.7v0.2c0,4.4,3.7,8,8.1,8h0.2c2.2,0,4.2-0.9,5.7-2.4c1.5-1.5,2.3-3.6,2.3-5.7v-0.2
	c0-4.4-3.7-8-8.1-8L18.3,10.8L18.3,10.8z"/>
</svg>
